<?xml version="1.0" encoding="UTF-8" standalone="no"?>
<svg
   width="1261"
   height="1806"
   viewBox="0 0 1261 1806"
   version="1.1"
   id="svg2"
   sodipodi:docname="xiaomi_pet_feeder_2_footprint.svg"
   inkscape:version="1.4.4 (dcaf3e7d9e, 2026-05-05)"
   xmlns:inkscape="http://www.inkscape.org/namespaces/inkscape"
   xmlns:sodipodi="http://sodipodi.sourceforge.net/DTD/sodipodi-0.dtd"
   xmlns="http://www.w3.org/2000/svg"
   xmlns:svg="http://www.w3.org/2000/svg">
  <defs
     id="defs2" />
  <sodipodi:namedview
     id="namedview2"
     pagecolor="#ffffff"
     bordercolor="#000000"
     borderopacity="0.25"
     inkscape:showpageshadow="2"
     inkscape:pageopacity="0.0"
     inkscape:pagecheckerboard="0"
     inkscape:deskcolor="#d1d1d1"
     inkscape:zoom="0.25"
     inkscape:cx="-72"
     inkscape:cy="200"
     inkscape:window-width="1440"
     inkscape:window-height="831"
     inkscape:window-x="0"
     inkscape:window-y="0"
     inkscape:window-maximized="1"
     inkscape:current-layer="svg2"
     showguides="true">
    <sodipodi:guide
       position="792.47335,1806"
       orientation="0,-1"
       id="guide1"
       inkscape:locked="false" />
    <sodipodi:guide
       position="0,760.41004"
       orientation="1,0"
       id="guide2"
       inkscape:locked="false" />
  </sodipodi:namedview>
  <path
     fill="#ffffff"
     fill-rule="evenodd"
     d="m -182.16153,608.38987 c -17.34544,-0.78389 -33.02333,-1.78635 -47.03367,-3.0073 -35.49616,-3.08569 -72.68839,-8.02423 -103.93728,-26.4315 -30.52912,-17.97256 -51.63014,-44.13803 -63.30304,-78.49634 -9.18581,-27.0301 -13.25494,-54.94387 -15.50685,-83.5489 -3.43489,-43.67717 -4.0335,-93.15517 -4.4682,-134.85835 -0.30406,-28.73807 -0.23517,-60.38838 0.20666,-94.951 0.49884,-38.68876 1.20435,-75.318 3.75557,-112.781033 1.26848,-18.68044 3.3945,-36.55087 6.37805,-53.61126 2.07138,-11.86768 5.0098,-23.38856 8.81525,-34.56262 9.46374,-27.79262 25.57634,-50.44954 48.33778,-67.97077 4.24728,-3.27335 6.75099,-5.46351 7.51114,-6.57046 3.50614,-5.12382 4.33279,-9.03617 4.33279,-15.891677 0.0522,-199.01418 0.0926,-327.67264 0.12115,-385.97538 0.007,-16.17673 1.47515,-32.47461 6.48495,-48.08124 10.02672,-31.24888 34.24906,-55.87742 65.21289,-66.5954 18.29325,-6.32816 37.22073,-7.3401 56.51879,-7.3401 183.098747,0.038 324.14748,0.0784 423.14623,0.12115 8.01473,0.005 16.87274,0.5606 26.57402,1.66755 35.94513,4.10476 67.60734,24.92072 83.85533,57.55924 9.72029,19.53322 12.49243,40.53447 12.49243,62.49776 0,48.05986 -0.0264,176.55442 -0.0784,385.48367 0,4.37556 0.21144,7.354357 0.63424,8.936397 1.57492,5.94334 4.59647,9.42098 9.91983,13.39747 18.81347,14.08159 33.60057,32.37484 43.32799,53.42597 4.52285,9.7868 8.13825,20.06532 10.84624,30.83555 6.72012,26.72368 9.62765,55.67789 11.26671,83.36362 0.94067,15.853693 1.59629,31.472153 1.96686,46.855513 1.06417,44.28768 1.51313,87.91732 1.34687,130.88899 -0.0926,23.66649 -0.5701,45.85783 -1.06895,76.48672 -0.49884,29.83788 -1.90272,60.73757 -4.70336,89.43524 -2.62961,26.91608 -7.1762,52.93425 -16.73259,78.05451 -7.91968,20.80406 -19.55225,38.41318 -34.89755,52.82736 -23.40282,21.97042 -52.3499,34.19205 -83.63442,39.88597 -30.49349,5.54428 -62.49064,7.67504 -93.18367,9.03617 -57.21004,2.53697 -115.382133,3.82683 -182.57970309,3.80787 C -67.435013,612.26406 -125.50735,610.94587 -182.16154,608.38987 Z"
     id="path2"
     style="fill:#000000;stroke-width:0.712631"
     sodipodi:nodetypes="ccccccccccccccccccccscccccccccccccscc" />
</svg>
